<svg xmlns="http://www.w3.org/2000/svg" viewBox="0 0 1920 1080" fill="none">
  <rect width="1920" height="1080" fill="#E8E0D8"/>

  <!-- Left panel: AI generation interface -->
  <rect x="0" y="0" width="960" height="1080" fill="#F0EDE8"/>

  <!-- Toolbar -->
  <rect x="40" y="60" width="880" height="40" rx="6" fill="#FFFFFF"/>
  <circle cx="68" cy="80" r="6" fill="#CC3333" opacity="0.8"/>
  <circle cx="90" cy="80" r="6" fill="#D0C8C0"/>
  <circle cx="112" cy="80" r="6" fill="#D0C8C0"/>
  <rect x="160" y="72" width="200" height="16" rx="3" fill="#E8E0D8"/>
  <rect x="760" y="72" width="80" height="16" rx="3" fill="#CC3333" opacity="0.25"/>
  <rect x="850" y="72" width="50" height="16" rx="3" fill="#E8E0D8"/>

  <!-- AI label -->
  <rect x="40" y="120" width="120" height="24" rx="4" fill="#CC3333" opacity="0.12"/>
  <rect x="60" y="129" width="80" height="6" rx="1" fill="#CC3333" opacity="0.6"/>

  <!-- Product grid row 1 -->
  <rect x="40" y="160" width="280" height="280" rx="8" fill="#FFFFFF"/>
  <rect x="60" y="180" width="240" height="180" rx="4" fill="#F7F2EE"/>
  <rect x="155" y="200" width="50" height="130" rx="8" fill="#E0D8D0"/>
  <rect x="165" y="190" width="30" height="20" rx="4" fill="#D8D0C8"/>
  <circle cx="180" cy="250" r="15" fill="#C8C0B8" opacity="0.5"/>
  <rect x="80" y="380" width="120" height="8" rx="2" fill="#D0C8C0"/>
  <rect x="80" y="400" width="80" height="14" rx="3" fill="#CC3333" opacity="0.1"/>
  <rect x="95" y="404" width="50" height="6" rx="1" fill="#CC3333" opacity="0.5"/>

  <rect x="340" y="160" width="280" height="280" rx="8" fill="#FFFFFF"/>
  <rect x="360" y="180" width="240" height="180" rx="4" fill="#F7F2EE"/>
  <rect x="440" y="220" width="80" height="70" rx="6" fill="#E0D8D0"/>
  <rect x="445" y="210" width="70" height="16" rx="4" fill="#D8D0C8"/>
  <ellipse cx="480" cy="290" rx="40" ry="6" fill="#D0C8C0" opacity="0.4"/>
  <rect x="380" y="380" width="100" height="8" rx="2" fill="#D0C8C0"/>

  <rect x="640" y="160" width="280" height="280" rx="8" fill="#FFFFFF"/>
  <rect x="660" y="180" width="240" height="180" rx="4" fill="#F7F2EE"/>
  <rect x="750" y="210" width="40" height="120" rx="20" fill="#E0D8D0"/>
  <rect x="755" y="200" width="30" height="18" rx="3" fill="#D8D0C8"/>
  <rect x="680" y="380" width="90" height="8" rx="2" fill="#D0C8C0"/>

  <!-- Product grid row 2 -->
  <rect x="40" y="460" width="280" height="280" rx="8" fill="#FFFFFF"/>
  <rect x="60" y="480" width="240" height="180" rx="4" fill="#F7F2EE"/>
  <circle cx="130" cy="560" r="30" fill="#E0D8D0"/>
  <rect x="175" y="530" width="60" height="60" rx="4" fill="#D8D0C8"/>
  <circle cx="270" cy="570" r="20" fill="#E0D8D0"/>
  <rect x="80" y="680" width="110" height="8" rx="2" fill="#D0C8C0"/>

  <rect x="340" y="460" width="280" height="280" rx="8" fill="#FFFFFF"/>
  <rect x="360" y="480" width="240" height="180" rx="4" fill="#F7F2EE"/>
  <circle cx="480" cy="530" r="25" fill="#E0D8D0"/>
  <rect x="460" y="555" width="40" height="60" rx="4" fill="#D8D0C8"/>
  <rect x="505" y="570" width="50" height="70" rx="6" fill="#C8C0B8"/>
  <rect x="380" y="680" width="100" height="8" rx="2" fill="#D0C8C0"/>
  <rect x="380" y="700" width="80" height="14" rx="3" fill="#CC3333" opacity="0.1"/>
  <rect x="395" y="704" width="50" height="6" rx="1" fill="#CC3333" opacity="0.5"/>

  <rect x="640" y="460" width="280" height="280" rx="8" fill="#FFFFFF"/>
  <rect x="660" y="480" width="240" height="180" rx="4" fill="#F7F2EE"/>
  <circle cx="780" cy="560" r="50" fill="#E0D8D0" opacity="0.6"/>
  <circle cx="780" cy="560" r="30" fill="#D8D0C8"/>
  <circle cx="780" cy="560" r="15" fill="#C8C0B8"/>
  <rect x="680" y="680" width="100" height="8" rx="2" fill="#D0C8C0"/>

  <!-- Progress bar -->
  <rect x="40" y="780" width="880" height="4" rx="2" fill="#E0D8D0"/>
  <rect x="40" y="780" width="660" height="4" rx="2" fill="#CC3333" opacity="0.5"/>

  <!-- Settings panel -->
  <rect x="40" y="810" width="420" height="220" rx="8" fill="#FFFFFF"/>
  <rect x="64" y="836" width="140" height="8" rx="2" fill="#B0A898"/>
  <rect x="64" y="860" width="120" height="12" rx="2" fill="#E8E0D8"/>
  <rect x="194" y="862" width="180" height="8" rx="2" fill="#D0C8C0"/>
  <rect x="64" y="888" width="80" height="12" rx="2" fill="#E8E0D8"/>
  <rect x="154" y="890" width="150" height="8" rx="2" fill="#D0C8C0"/>
  <rect x="64" y="916" width="100" height="12" rx="2" fill="#E8E0D8"/>
  <rect x="174" y="918" width="160" height="8" rx="2" fill="#D0C8C0"/>
  <rect x="64" y="944" width="90" height="12" rx="2" fill="#E8E0D8"/>
  <rect x="164" y="946" width="100" height="8" rx="2" fill="#D0C8C0"/>
  <rect x="64" y="976" width="160" height="28" rx="4" fill="#CC3333" opacity="0.15"/>
  <rect x="90" y="986" width="108" height="8" rx="2" fill="#CC3333" opacity="0.5"/>

  <!-- Prompt area -->
  <rect x="480" y="810" width="440" height="220" rx="8" fill="#FFFFFF"/>
  <rect x="504" y="836" width="80" height="8" rx="2" fill="#B0A898"/>
  <rect x="504" y="860" width="280" height="8" rx="2" fill="#D0C8C0"/>
  <rect x="504" y="880" width="260" height="8" rx="2" fill="#D0C8C0"/>
  <rect x="504" y="900" width="240" height="8" rx="2" fill="#D0C8C0"/>
  <rect x="504" y="920" width="220" height="8" rx="2" fill="#D0C8C0"/>
  <rect x="504" y="940" width="250" height="8" rx="2" fill="#D0C8C0"/>

  <!-- Center divider -->
  <line x1="960" y1="0" x2="960" y2="1080" stroke="#CC3333" stroke-width="2" opacity="0.4"/>
  <rect x="940" y="510" width="40" height="60" rx="6" fill="#FFFFFF" stroke="#CC3333" stroke-width="1.5" opacity="0.6"/>
  <polygon points="955,530 970,540 955,550" fill="#CC3333" opacity="0.6"/>

  <!-- Right panel: Published posts -->
  <rect x="960" y="0" width="960" height="1080" fill="#E0D8D0"/>

  <!-- Published label -->
  <rect x="1000" y="120" width="100" height="24" rx="4" fill="#E0D8D0" stroke="#B0A898" stroke-width="0.5"/>
  <rect x="1020" y="129" width="60" height="6" rx="1" fill="#B0A898"/>

  <!-- Phone 1: RedNote -->
  <rect x="1000" y="160" width="260" height="480" rx="20" fill="#1A1A1A"/>
  <rect x="1006" y="166" width="248" height="468" rx="18" fill="#FFFFFF"/>
  <rect x="1006" y="166" width="248" height="36" rx="18" fill="#FF2442" opacity="0.12"/>
  <rect x="1100" y="180" width="60" height="8" rx="2" fill="#FF2442" opacity="0.5"/>
  <rect x="1020" y="212" width="220" height="220" rx="6" fill="#F7F2EE"/>
  <rect x="1105" y="240" width="50" height="130" rx="8" fill="#E0D8D0"/>
  <rect x="1115" y="230" width="30" height="20" rx="4" fill="#D8D0C8"/>
  <circle cx="1070" cy="370" r="15" fill="#D0C8C0" opacity="0.5"/>
  <rect x="1170" y="350" width="40" height="50" rx="4" fill="#D0C8C0" opacity="0.4"/>
  <rect x="1020" y="446" width="180" height="10" rx="2" fill="#E8E0D8"/>
  <rect x="1020" y="464" width="140" height="10" rx="2" fill="#E8E0D8"/>
  <rect x="1020" y="482" width="200" height="10" rx="2" fill="#E8E0D8"/>
  <rect x="1020" y="510" width="60" height="8" rx="2" fill="#FF2442" opacity="0.2"/>
  <rect x="1090" y="510" width="50" height="8" rx="2" fill="#E8E0D8"/>
  <rect x="1150" y="510" width="40" height="8" rx="2" fill="#E8E0D8"/>
  <rect x="1020" y="546" width="100" height="24" rx="4" fill="#FF2442" opacity="0.08"/>
  <rect x="1040" y="555" width="60" height="6" rx="1" fill="#FF2442" opacity="0.4"/>
  <rect x="1130" y="546" width="100" height="24" rx="4" fill="#FF2442" opacity="0.08"/>
  <rect x="1150" y="555" width="60" height="6" rx="1" fill="#FF2442" opacity="0.4"/>
  <rect x="1020" y="596" width="220" height="24" rx="4" fill="#F0EDE8"/>

  <!-- Phone 2: Douyin -->
  <rect x="1300" y="100" width="260" height="480" rx="20" fill="#1A1A1A"/>
  <rect x="1306" y="106" width="248" height="468" rx="18" fill="#FFFFFF"/>
  <rect x="1306" y="106" width="248" height="36" rx="18" fill="#1A1A1A" opacity="0.05"/>
  <rect x="1400" y="120" width="60" height="8" rx="2" fill="#1A1A1A" opacity="0.2"/>
  <rect x="1320" y="152" width="220" height="300" rx="6" fill="#F7F2EE"/>
  <circle cx="1430" cy="260" r="30" fill="#E0D8D0"/>
  <rect x="1415" y="290" width="30" height="50" rx="4" fill="#D8D0C8"/>
  <rect x="1370" y="300" width="40" height="80" rx="6" fill="#D0C8C0"/>
  <circle cx="1430" cy="300" r="20" fill="#FFFFFF" opacity="0.6"/>
  <polygon points="1424,290 1424,310 1440,300" fill="#1A1A1A" opacity="0.3"/>
  <rect x="1330" y="400" width="160" height="10" rx="2" fill="#E8E0D8"/>
  <rect x="1330" y="416" width="120" height="10" rx="2" fill="#E8E0D8" opacity="0.6"/>
  <circle cx="1520" cy="300" r="14" fill="#F0EDE8"/>
  <rect x="1510" y="320" width="20" height="6" rx="1" fill="#B0A898"/>
  <circle cx="1520" cy="350" r="14" fill="#F0EDE8"/>
  <rect x="1513" y="370" width="14" height="6" rx="1" fill="#B0A898"/>
  <circle cx="1520" cy="400" r="14" fill="#F0EDE8"/>
  <rect x="1513" y="420" width="14" height="6" rx="1" fill="#B0A898"/>
  <rect x="1320" y="466" width="180" height="10" rx="2" fill="#E8E0D8"/>
  <rect x="1320" y="484" width="140" height="10" rx="2" fill="#E8E0D8"/>
  <rect x="1320" y="512" width="100" height="24" rx="4" fill="#F0EDE8"/>
  <rect x="1340" y="521" width="60" height="6" rx="1" fill="#B0A898"/>

  <!-- Phone 3: WeChat -->
  <rect x="1600" y="180" width="260" height="480" rx="20" fill="#1A1A1A"/>
  <rect x="1606" y="186" width="248" height="468" rx="18" fill="#FFFFFF"/>
  <rect x="1606" y="186" width="248" height="36" rx="18" fill="#07C160" opacity="0.12"/>
  <rect x="1700" y="200" width="60" height="8" rx="2" fill="#07C160" opacity="0.5"/>
  <rect x="1620" y="232" width="220" height="140" rx="6" fill="#F7F2EE"/>
  <rect x="1690" y="260" width="40" height="90" rx="6" fill="#E0D8D0"/>
  <rect x="1740" y="280" width="50" height="50" rx="4" fill="#D8D0C8"/>
  <circle cx="1670" cy="310" r="20" fill="#D0C8C0" opacity="0.6"/>
  <rect x="1620" y="386" width="200" height="12" rx="2" fill="#E8E0D8"/>
  <rect x="1620" y="408" width="220" height="8" rx="2" fill="#E8E0D8"/>
  <rect x="1620" y="424" width="200" height="8" rx="2" fill="#E8E0D8"/>
  <rect x="1620" y="440" width="180" height="8" rx="2" fill="#E8E0D8"/>
  <rect x="1620" y="456" width="210" height="8" rx="2" fill="#E8E0D8"/>
  <rect x="1620" y="480" width="160" height="8" rx="2" fill="#E8E0D8"/>
  <rect x="1620" y="496" width="190" height="8" rx="2" fill="#E8E0D8"/>
  <rect x="1620" y="530" width="80" height="20" rx="4" fill="#07C160" opacity="0.08"/>
  <rect x="1634" y="537" width="52" height="6" rx="1" fill="#07C160" opacity="0.4"/>
  <rect x="1710" y="530" width="60" height="20" rx="4" fill="#07C160" opacity="0.08"/>
  <rect x="1722" y="537" width="36" height="6" rx="1" fill="#07C160" opacity="0.4"/>
  <rect x="1620" y="616" width="220" height="24" rx="4" fill="#F0EDE8"/>

  <!-- Connection lines -->
  <line x1="920" y1="320" x2="1020" y2="320" stroke="#CC3333" stroke-width="1.5" opacity="0.3" stroke-dasharray="4 4"/>
  <line x1="920" y1="500" x2="1320" y2="340" stroke="#CC3333" stroke-width="1.5" opacity="0.2" stroke-dasharray="4 4"/>
  <line x1="920" y1="600" x2="1620" y2="300" stroke="#CC3333" stroke-width="1.5" opacity="0.15" stroke-dasharray="4 4"/>
</svg>
