<svg xmlns="http://www.w3.org/2000/svg" viewBox="-5 -5 80 72" width="48" height="48">
  <!-- Weibo icon only (eye shape + signal arcs) -->
  <!-- Inner eye white -->
  <path d="M5.53 41.936c0 8.758 11.402 15.86 25.47 15.86s25.47-7.103 25.47-15.86S45.067 26.077 31 26.077 5.53 33.178 5.53 41.936" fill="#fff"/>
  <!-- Outer eye red -->
  <path d="M31.593 56.504c-12.45 1.228-23.197-4.398-24.007-12.573-.808-8.173 8.633-15.795 21.081-17.026 12.451-1.232 23.199 4.396 24.007 12.567.807 8.176-8.63 15.8-21.081 17.032m24.903-27.135c-1.059-.316-1.785-.533-1.231-1.924 1.201-3.022 1.325-5.628.023-7.488-2.441-3.487-9.121-3.3-16.778-.093 0-.005-2.404 1.052-1.79-.855 1.178-3.787 1-6.958-.833-8.789-4.153-4.157-15.2.157-24.674 9.627C4.119 26.942 0 34.461 0 40.963 0 53.4 15.949 60.961 31.552 60.961c20.453 0 34.059-11.884 34.059-21.318 0-5.701-4.801-8.936-9.115-10.274" fill="#FFFFFF"/>
  <!-- Signal arcs (orange on original, white here for dark bg) -->
  <path d="M70.078 6.61C65.139 1.134 57.853-.953 51.128.476h-.002a2.879 2.879 0 0 0 1.203 5.632c4.784-1.016 9.961.472 13.475 4.36a14.156 14.156 0 0 1 2.957 13.847l.001.001a2.876 2.876 0 0 0 1.855 3.626 2.88 2.88 0 0 0 3.625-1.85l.001-.012c2.108-6.542.776-14-4.165-19.47" fill="#FFFFFF"/>
  <path d="M62.492 13.455c-2.404-2.667-5.953-3.68-9.23-2.983a2.478 2.478 0 1 0 1.033 4.845v.002a4.752 4.752 0 0 1 4.515 1.456 4.737 4.737 0 0 1 .987 4.641h.002a2.48 2.48 0 0 0 1.595 3.122 2.48 2.48 0 0 0 3.121-1.598c1.03-3.187.386-6.819-2.023-9.485" fill="#FFFFFF"/>
  <!-- Center dots -->
  <ellipse cx="28" cy="42" rx="5" ry="4" fill="#FFFFFF" opacity="0.5"/>
</svg>
