<svg xmlns="http://www.w3.org/2000/svg" viewBox="0 0 800 500" fill="none">
  <rect width="800" height="500" rx="12" fill="#F5F5F0"/>
  <rect x="290" y="20" width="220" height="460" rx="24" fill="#1A1A1A"/>
  <rect x="298" y="44" width="204" height="420" rx="16" fill="#FFFFFF"/>
  <!-- Search bar -->
  <rect x="298" y="44" width="204" height="36" rx="16" fill="#FAFAFA"/>
  <rect x="314" y="52" width="170" height="20" rx="10" fill="#F0F0F0"/>
  <text x="399" y="66" text-anchor="middle" fill="#999" font-family="Inter,system-ui,sans-serif" font-size="9">Brand Name</text>
  <!-- Brand zone card -->
  <rect x="306" y="88" width="188" height="140" rx="8" fill="#FFF8F0" stroke="#CC3333" stroke-width="1.5" stroke-opacity="0.3"/>
  <!-- Brand header -->
  <rect x="306" y="88" width="188" height="60" rx="8" fill="#CC3333" fill-opacity="0.06"/>
  <circle cx="336" cy="118" r="16" fill="#E8E0D8" stroke="#FFFFFF" stroke-width="2"/>
  <text x="336" y="122" text-anchor="middle" fill="#666" font-family="Inter,system-ui,sans-serif" font-size="7">LOGO</text>
  <rect x="360" y="108" width="80" height="8" rx="2" fill="#1A1A1A" fill-opacity="0.6"/>
  <rect x="360" y="122" width="50" height="5" rx="2" fill="#1A1A1A" fill-opacity="0.2"/>
  <!-- Brand zone content -->
  <rect x="314" y="156" width="52" height="60" rx="4" fill="#E8E0D8"/>
  <rect x="372" y="156" width="52" height="60" rx="4" fill="#F0F0F0"/>
  <rect x="430" y="156" width="52" height="60" rx="4" fill="#E8E0D8"/>
  <!-- CTA -->
  <rect x="382" y="108" width="50" height="18" rx="9" fill="#CC3333"/>
  <text x="407" y="120" text-anchor="middle" fill="#FFFFFF" font-family="Inter,system-ui,sans-serif" font-size="8">Follow</text>
  <!-- Regular results below -->
  <rect x="306" y="238" width="90" height="100" rx="6" fill="#F0F0F0"/>
  <rect x="404" y="238" width="90" height="100" rx="6" fill="#E8E0D8"/>
  <rect x="306" y="346" width="90" height="90" rx="6" fill="#E8E0D8"/>
  <rect x="404" y="346" width="90" height="90" rx="6" fill="#F0F0F0"/>
  <!-- Labels -->
  <text x="108" y="130" text-anchor="middle" fill="#CC3333" font-family="Inter,system-ui,sans-serif" font-size="13" font-weight="500">Brand zone</text>
  <text x="108" y="148" text-anchor="middle" fill="#999" font-family="Inter,system-ui,sans-serif" font-size="10">Dedicated landing area</text>
  <text x="108" y="164" text-anchor="middle" fill="#999" font-family="Inter,system-ui,sans-serif" font-size="10">in search results</text>
  <line x1="170" y1="126" x2="304" y2="118" stroke="#CC3333" stroke-width="1" stroke-dasharray="4 3" opacity="0.4"/>
  <text x="650" y="140" text-anchor="middle" fill="#1A1A1A" font-family="Inter,system-ui,sans-serif" font-size="14" font-weight="500">Brand Zone</text>
  <text x="650" y="162" text-anchor="middle" fill="#999999" font-family="Inter,system-ui,sans-serif" font-size="11">Dedicated search landing</text>
  <text x="650" y="180" text-anchor="middle" fill="#999999" font-family="Inter,system-ui,sans-serif" font-size="11">Brand profile + products</text>
  <text x="650" y="198" text-anchor="middle" fill="#999999" font-family="Inter,system-ui,sans-serif" font-size="11">From 50,000 RMB</text>
</svg>