<svg xmlns="http://www.w3.org/2000/svg" viewBox="0 0 800 500" fill="none">
  <rect width="800" height="500" rx="12" fill="#F5F5F0"/>
  <rect x="290" y="20" width="220" height="460" rx="24" fill="#1A1A1A"/>
  <rect x="298" y="44" width="204" height="420" rx="16" fill="#FFFFFF"/>
  <!-- Search bar -->
  <rect x="298" y="44" width="204" height="36" rx="16" fill="#FAFAFA"/>
  <rect x="314" y="52" width="170" height="20" rx="10" fill="#F0F0F0"/>
  <text x="399" y="66" text-anchor="middle" fill="#999" font-family="Inter,system-ui,sans-serif" font-size="9">natural skincare</text>
  <!-- Boosted note - top result -->
  <rect x="306" y="88" width="92" height="130" rx="6" fill="#FFF8F0" stroke="#CC3333" stroke-width="1.5" stroke-opacity="0.4"/>
  <rect x="312" y="94" width="80" height="72" rx="4" fill="#E8E0D8"/>
  <rect x="312" y="172" width="60" height="6" rx="2" fill="#1A1A1A" fill-opacity="0.6"/>
  <rect x="312" y="184" width="45" height="5" rx="2" fill="#1A1A1A" fill-opacity="0.2"/>
  <rect x="312" y="198" width="28" height="10" rx="3" fill="#CC3333" fill-opacity="0.12"/>
  <text x="326" y="206" text-anchor="middle" fill="#CC3333" font-family="Inter,system-ui,sans-serif" font-size="7">Boosted</text>
  <!-- Regular results -->
  <rect x="404" y="88" width="92" height="130" rx="6" fill="#F0F0F0"/>
  <rect x="306" y="226" width="92" height="110" rx="6" fill="#F0F0F0"/>
  <rect x="404" y="226" width="92" height="110" rx="6" fill="#E8E0D8"/>
  <rect x="306" y="344" width="92" height="100" rx="6" fill="#E8E0D8"/>
  <rect x="404" y="344" width="92" height="100" rx="6" fill="#F0F0F0"/>
  <!-- Labels -->
  <text x="108" y="140" text-anchor="middle" fill="#CC3333" font-family="Inter,system-ui,sans-serif" font-size="13" font-weight="500">Boosted note</text>
  <text x="108" y="158" text-anchor="middle" fill="#999" font-family="Inter,system-ui,sans-serif" font-size="10">Top search placement</text>
  <line x1="170" y1="136" x2="304" y2="136" stroke="#CC3333" stroke-width="1" stroke-dasharray="4 3" opacity="0.4"/>
  <text x="650" y="140" text-anchor="middle" fill="#1A1A1A" font-family="Inter,system-ui,sans-serif" font-size="14" font-weight="500">RedNote Search Ad</text>
  <text x="650" y="162" text-anchor="middle" fill="#999999" font-family="Inter,system-ui,sans-serif" font-size="11">Boosted keyword ranking</text>
  <text x="650" y="180" text-anchor="middle" fill="#999999" font-family="Inter,system-ui,sans-serif" font-size="11">CPC model</text>
  <text x="650" y="198" text-anchor="middle" fill="#999999" font-family="Inter,system-ui,sans-serif" font-size="11">70%+ users search daily</text>
</svg>